<svg xmlns="http://www.w3.org/2000/svg" xmlns:xlink="http://www.w3.org/1999/xlink" width="58" height="58" viewBox="0 0 58 58">
  <defs>
    <clipPath id="clip-path">
      <rect width="58" height="58" fill="none"/>
    </clipPath>
  </defs>
  <g id="Education_Icon" clip-path="url(#clip-path)">
    <path id="Path_23" data-name="Path 23" d="M39,49H3a2.006,2.006,0,0,1-2-2V41a2.006,2.006,0,0,1,2-2H51" transform="translate(-1 -1)" fill="none" stroke="#231f20" stroke-linecap="round" stroke-linejoin="round" stroke-miterlimit="10" stroke-width="2"/>
    <path id="Path_24" data-name="Path 24" d="M3,53v4a2.006,2.006,0,0,0,2,2H55a2.006,2.006,0,0,0,2-2V50a.979.979,0,0,0-1-1H55V39h3a.979.979,0,0,0,1-1V31a2.006,2.006,0,0,0-2-2H9a2.006,2.006,0,0,0-2,2v4" transform="translate(-1 -1)" fill="none" stroke="#231f20" stroke-linecap="round" stroke-linejoin="round" stroke-miterlimit="10" stroke-width="2"/>
    <path id="Path_25" data-name="Path 25" d="M42,15a6.018,6.018,0,0,0-6-6,6.3,6.3,0,0,0-3,1,6.3,6.3,0,0,0-3-1,6.018,6.018,0,0,0-6,6c0,6,2,8,2,8a5.367,5.367,0,0,0,4,2,5.428,5.428,0,0,0,3-1,5.428,5.428,0,0,0,3,1,5.034,5.034,0,0,0,4-2A15.389,15.389,0,0,0,42,15Z" transform="translate(-1 -1)" fill="none" stroke="#231f20" stroke-linecap="round" stroke-linejoin="round" stroke-miterlimit="10" stroke-width="2"/>
    <path id="Path_26" data-name="Path 26" d="M35.6,5.4a3.662,3.662,0,0,0,3.5-.7,3.662,3.662,0,0,0,.7-3.5,3.662,3.662,0,0,0-3.5.7A3.662,3.662,0,0,0,35.6,5.4Z" transform="translate(-1 -1)" fill="none" stroke="#231f20" stroke-linecap="round" stroke-linejoin="round" stroke-miterlimit="10" stroke-width="2"/>
    <line id="Line_4" data-name="Line 4" x2="3" y2="5" transform="translate(29)" fill="none" stroke="#231f20" stroke-linecap="round" stroke-linejoin="round" stroke-miterlimit="10" stroke-width="2"/>
    <path id="Path_27" data-name="Path 27" d="M49,39" transform="translate(-1 -1)" fill="none" stroke="#231f20" stroke-linecap="round" stroke-linejoin="round" stroke-miterlimit="10" stroke-width="2"/>
    <path id="Path_28" data-name="Path 28" d="M43,39V55l3-2,3,2V39" transform="translate(-1 -1)" fill="none" stroke="#231f20" stroke-linecap="round" stroke-linejoin="round" stroke-miterlimit="10" stroke-width="2"/>
    <line id="Line_5" data-name="Line 5" x2="2" transform="translate(52 48)" fill="none" stroke="#231f20" stroke-linecap="round" stroke-linejoin="round" stroke-miterlimit="10" stroke-width="2"/>
    <line id="Line_6" data-name="Line 6" y2="10" transform="translate(10 38)" fill="none" stroke="#231f20" stroke-linecap="round" stroke-linejoin="round" stroke-miterlimit="10" stroke-width="2"/>
    <line id="Line_7" data-name="Line 7" y2="10" transform="translate(26 38)" fill="none" stroke="#231f20" stroke-linecap="round" stroke-linejoin="round" stroke-miterlimit="10" stroke-width="2"/>
    <line id="Line_8" data-name="Line 8" y2="6" transform="translate(14 52)" fill="none" stroke="#231f20" stroke-linecap="round" stroke-linejoin="round" stroke-miterlimit="10" stroke-width="2"/>
    <line id="Line_9" data-name="Line 9" y2="6" transform="translate(22 52)" fill="none" stroke="#231f20" stroke-linecap="round" stroke-linejoin="round" stroke-miterlimit="10" stroke-width="2"/>
    <line id="Line_10" data-name="Line 10" y2="6" transform="translate(18 52)" fill="none" stroke="#231f20" stroke-linecap="round" stroke-linejoin="round" stroke-miterlimit="10" stroke-width="2"/>
    <line id="Line_11" data-name="Line 11" y2="6" transform="translate(12 28)" fill="none" stroke="#231f20" stroke-linecap="round" stroke-linejoin="round" stroke-miterlimit="10" stroke-width="2"/>
    <line id="Line_12" data-name="Line 12" y2="6" transform="translate(52 28)" fill="none" stroke="#231f20" stroke-linecap="round" stroke-linejoin="round" stroke-miterlimit="10" stroke-width="2"/>
    <line id="Line_13" data-name="Line 13" y2="6" transform="translate(40 28)" fill="none" stroke="#231f20" stroke-linecap="round" stroke-linejoin="round" stroke-miterlimit="10" stroke-width="2"/>
    <line id="Line_14" data-name="Line 14" y2="2" transform="translate(16 42)" fill="none" stroke="#231f20" stroke-linecap="round" stroke-linejoin="round" stroke-miterlimit="10" stroke-width="2"/>
    <line id="Line_15" data-name="Line 15" y2="2" transform="translate(20 42)" fill="none" stroke="#231f20" stroke-linecap="round" stroke-linejoin="round" stroke-miterlimit="10" stroke-width="2"/>
  </g>
</svg>
