<svg xmlns="http://www.w3.org/2000/svg" xmlns:xlink="http://www.w3.org/1999/xlink" width="58.031" height="58.101" viewBox="0 0 58.031 58.101">
  <defs>
    <clipPath id="clip-path">
      <rect width="58.031" height="58.101" fill="none"/>
    </clipPath>
  </defs>
  <g id="Desgin_Icon" clip-path="url(#clip-path)">
    <path id="Path_20" data-name="Path 20" d="M51,53s0-9,8-11C49,32,41,13,41,13S33,31,23,41c8,2,8,12,8,12" transform="translate(-0.969 -0.899)" fill="none" stroke="#231f20" stroke-linecap="round" stroke-linejoin="round" stroke-miterlimit="10" stroke-width="2"/>
    <line id="Line_2" data-name="Line 2" y1="24" transform="translate(40.031 12.101)" fill="none" stroke="#231f20" stroke-linecap="round" stroke-linejoin="round" stroke-miterlimit="10" stroke-width="2"/>
    <rect id="Rectangle_47" data-name="Rectangle 47" width="5.7" height="5.7" transform="translate(40.031 8.061) rotate(-135)" stroke-width="2" stroke="#231f20" stroke-linecap="round" stroke-linejoin="round" stroke-miterlimit="10" fill="none"/>
    <circle id="Ellipse_43" data-name="Ellipse 43" cx="2" cy="2" r="2" transform="translate(0.031 2.101)" stroke-width="2" stroke="#231f20" stroke-linecap="round" stroke-linejoin="round" stroke-miterlimit="10" fill="none"/>
    <line id="Line_3" data-name="Line 3" x1="32" transform="translate(4.031 4.101)" fill="none" stroke="#231f20" stroke-linecap="round" stroke-linejoin="round" stroke-miterlimit="10" stroke-width="2"/>
    <circle id="Ellipse_44" data-name="Ellipse 44" cx="4" cy="4" r="4" transform="translate(36.031 36.101)" stroke-width="2" stroke="#231f20" stroke-linecap="round" stroke-linejoin="round" stroke-miterlimit="10" fill="none"/>
    <path id="Path_21" data-name="Path 21" d="M29,59V57H53v2" transform="translate(-0.969 -0.899)" fill="none" stroke="#231f20" stroke-linecap="round" stroke-linejoin="round" stroke-miterlimit="10" stroke-width="2"/>
    <path id="Path_22" data-name="Path 22" d="M37,5A31.966,31.966,0,0,0,5,37" transform="translate(-0.969 -0.899)" fill="none" stroke="#231f20" stroke-linecap="round" stroke-linejoin="round" stroke-miterlimit="10" stroke-width="2"/>
    <rect id="Rectangle_48" data-name="Rectangle 48" width="5.7" height="5.7" transform="translate(4.03 44.061) rotate(-135)" stroke-width="2" stroke="#231f20" stroke-linecap="round" stroke-linejoin="round" stroke-miterlimit="10" fill="none"/>
  </g>
</svg>
